<svg xmlns="http://www.w3.org/2000/svg" width="45" height="45" viewBox="0 0 45 45">
  <path id="times-solid" d="M31.03,102.5,43.823,89.707a4.022,4.022,0,0,0,0-5.686l-2.843-2.843a4.022,4.022,0,0,0-5.686,0L22.5,93.97,9.707,81.177a4.022,4.022,0,0,0-5.686,0L1.177,84.021a4.022,4.022,0,0,0,0,5.686L13.97,102.5,1.177,115.293a4.022,4.022,0,0,0,0,5.686l2.843,2.843a4.022,4.022,0,0,0,5.686,0L22.5,111.03l12.793,12.793a4.022,4.022,0,0,0,5.686,0l2.843-2.843a4.022,4.022,0,0,0,0-5.686Z" transform="translate(0 -80)" fill="#f6416c"/>
</svg>
